<mxfile host="app.diagrams.net" modified="2023-02-24T14:54:34.515Z" agent="5.0 (Macintosh; Intel Mac OS X 10_15_7) AppleWebKit/537.36 (KHTML, like Gecko) Chrome/110.0.0.0 Safari/537.36" etag="gcIzf9RbEMy6zIpIdD8U" version="20.8.23" type="github" pages="2">
  <diagram name="現状" id="e7e014a7-5840-1c2e-5031-d8a46d1fe8dd">
    <mxGraphModel dx="1099" dy="1003" grid="1" gridSize="10" guides="1" tooltips="1" connect="1" arrows="1" fold="1" page="1" pageScale="1" pageWidth="1169" pageHeight="826" background="none" math="0" shadow="0">
      <root>
        <mxCell id="0" />
        <mxCell id="1" parent="0" />
        <mxCell id="dUvF8M2V_EA_DoqasxbO-41" value="&lt;b&gt;ユーザー&lt;/b&gt;" style="shape=umlActor;verticalLabelPosition=bottom;verticalAlign=top;html=1;outlineConnect=0;" vertex="1" parent="1">
          <mxGeometry x="90" y="380" width="30" height="60" as="geometry" />
        </mxCell>
        <mxCell id="man2qqhEB5DTvrfv7Pa3-1" value="&lt;br&gt;&lt;br&gt;&lt;br&gt;&lt;br&gt;&lt;br&gt;ブロックチェーンネットワーク" style="ellipse;shape=cloud;whiteSpace=wrap;html=1;fillColor=#dae8fc;strokeColor=#6c8ebf;verticalAlign=top;fontStyle=1;fontSize=14;" vertex="1" parent="1">
          <mxGeometry x="496.25" y="253" width="323" height="287" as="geometry" />
        </mxCell>
        <mxCell id="man2qqhEB5DTvrfv7Pa3-2" value="ウォレット" style="rounded=1;whiteSpace=wrap;html=1;fontSize=14;fillColor=#f8cecc;strokeColor=#b85450;" vertex="1" parent="1">
          <mxGeometry x="190" y="370" width="80" height="80" as="geometry" />
        </mxCell>
        <mxCell id="man2qqhEB5DTvrfv7Pa3-3" value="フロント&lt;br&gt;エンド" style="rounded=1;whiteSpace=wrap;html=1;fontSize=14;fillColor=#fff2cc;strokeColor=#d6b656;" vertex="1" parent="1">
          <mxGeometry x="353" y="373" width="80" height="80" as="geometry" />
        </mxCell>
        <mxCell id="man2qqhEB5DTvrfv7Pa3-4" value="NFT&lt;br&gt;コントラクト" style="rounded=1;whiteSpace=wrap;html=1;fontSize=14;fillColor=#d5e8d4;strokeColor=#82b366;" vertex="1" parent="1">
          <mxGeometry x="604" y="374" width="107.5" height="80" as="geometry" />
        </mxCell>
        <mxCell id="man2qqhEB5DTvrfv7Pa3-5" value="" style="endArrow=classic;startArrow=classic;html=1;rounded=0;fontSize=14;exitX=1;exitY=0.5;exitDx=0;exitDy=0;" edge="1" parent="1" source="man2qqhEB5DTvrfv7Pa3-3" target="man2qqhEB5DTvrfv7Pa3-4">
          <mxGeometry width="50" height="50" relative="1" as="geometry">
            <mxPoint x="440" y="500" as="sourcePoint" />
            <mxPoint x="490" y="450" as="targetPoint" />
          </mxGeometry>
        </mxCell>
        <mxCell id="man2qqhEB5DTvrfv7Pa3-6" value="" style="endArrow=classic;startArrow=classic;html=1;rounded=0;fontSize=14;exitX=1;exitY=0.5;exitDx=0;exitDy=0;" edge="1" parent="1" source="man2qqhEB5DTvrfv7Pa3-2">
          <mxGeometry width="50" height="50" relative="1" as="geometry">
            <mxPoint x="443" y="423" as="sourcePoint" />
            <mxPoint x="360" y="410" as="targetPoint" />
          </mxGeometry>
        </mxCell>
        <mxCell id="man2qqhEB5DTvrfv7Pa3-10" value="" style="endArrow=classic;startArrow=classic;html=1;rounded=0;fontSize=14;entryX=0;entryY=0.5;entryDx=0;entryDy=0;" edge="1" parent="1" source="dUvF8M2V_EA_DoqasxbO-41" target="man2qqhEB5DTvrfv7Pa3-2">
          <mxGeometry width="50" height="50" relative="1" as="geometry">
            <mxPoint x="280" y="420" as="sourcePoint" />
            <mxPoint x="370" y="420" as="targetPoint" />
          </mxGeometry>
        </mxCell>
        <mxCell id="man2qqhEB5DTvrfv7Pa3-11" value="Dappにアクセス&lt;br&gt;必要に応じて署名" style="text;html=1;strokeColor=none;fillColor=none;align=left;verticalAlign=middle;whiteSpace=wrap;rounded=0;fontSize=14;fontStyle=1" vertex="1" parent="1">
          <mxGeometry x="100" y="320" width="130" height="30" as="geometry" />
        </mxCell>
        <mxCell id="man2qqhEB5DTvrfv7Pa3-12" value="mint 要求" style="text;html=1;strokeColor=none;fillColor=none;align=center;verticalAlign=middle;whiteSpace=wrap;rounded=0;fontSize=14;fontStyle=1" vertex="1" parent="1">
          <mxGeometry x="440" y="370" width="90" height="30" as="geometry" />
        </mxCell>
        <mxCell id="man2qqhEB5DTvrfv7Pa3-13" value="Astar Learning Dappの現状" style="text;html=1;strokeColor=none;fillColor=none;align=left;verticalAlign=middle;whiteSpace=wrap;rounded=0;fontSize=23;fontStyle=1" vertex="1" parent="1">
          <mxGeometry x="30" y="110" width="330" height="60" as="geometry" />
        </mxCell>
        <mxCell id="man2qqhEB5DTvrfv7Pa3-14" value="PSP34準拠" style="text;html=1;strokeColor=none;fillColor=none;align=center;verticalAlign=middle;whiteSpace=wrap;rounded=0;fontSize=14;fontStyle=1" vertex="1" parent="1">
          <mxGeometry x="612.75" y="427" width="90" height="30" as="geometry" />
        </mxCell>
      </root>
    </mxGraphModel>
  </diagram>
  <diagram id="b72MH92Sac5sTVVwrYgV" name="理想">
    <mxGraphModel dx="1099" dy="1003" grid="1" gridSize="10" guides="1" tooltips="1" connect="1" arrows="1" fold="1" page="1" pageScale="1" pageWidth="827" pageHeight="1169" math="0" shadow="0">
      <root>
        <mxCell id="0" />
        <mxCell id="1" parent="0" />
        <mxCell id="LIJdBww6pnUgFBLt4BhZ-1" value="&lt;b&gt;ユーザー&lt;/b&gt;" style="shape=umlActor;verticalLabelPosition=bottom;verticalAlign=top;html=1;outlineConnect=0;" vertex="1" parent="1">
          <mxGeometry x="90" y="380" width="30" height="60" as="geometry" />
        </mxCell>
        <mxCell id="LIJdBww6pnUgFBLt4BhZ-2" value="&lt;br&gt;&lt;br&gt;&lt;br&gt;&lt;br&gt;&lt;br&gt;ブロックチェーンネットワーク" style="ellipse;shape=cloud;whiteSpace=wrap;html=1;fillColor=#dae8fc;strokeColor=#6c8ebf;verticalAlign=top;fontStyle=1;fontSize=14;" vertex="1" parent="1">
          <mxGeometry x="496.25" y="230" width="323" height="400" as="geometry" />
        </mxCell>
        <mxCell id="LIJdBww6pnUgFBLt4BhZ-3" value="ウォレット" style="rounded=1;whiteSpace=wrap;html=1;fontSize=14;fillColor=#f8cecc;strokeColor=#b85450;fontStyle=1" vertex="1" parent="1">
          <mxGeometry x="190" y="370" width="80" height="80" as="geometry" />
        </mxCell>
        <mxCell id="LIJdBww6pnUgFBLt4BhZ-4" value="フロント&lt;br&gt;エンド" style="rounded=1;whiteSpace=wrap;html=1;fontSize=14;fillColor=#fff2cc;strokeColor=#d6b656;fontStyle=1" vertex="1" parent="1">
          <mxGeometry x="353" y="373" width="80" height="80" as="geometry" />
        </mxCell>
        <mxCell id="LIJdBww6pnUgFBLt4BhZ-5" value="NFT&lt;br&gt;コントラクト" style="rounded=1;whiteSpace=wrap;html=1;fontSize=14;fillColor=#d5e8d4;strokeColor=#82b366;" vertex="1" parent="1">
          <mxGeometry x="604" y="374" width="107.5" height="80" as="geometry" />
        </mxCell>
        <mxCell id="LIJdBww6pnUgFBLt4BhZ-6" value="" style="endArrow=classic;startArrow=classic;html=1;rounded=0;fontSize=14;exitX=1;exitY=0.5;exitDx=0;exitDy=0;" edge="1" parent="1" source="LIJdBww6pnUgFBLt4BhZ-4" target="LIJdBww6pnUgFBLt4BhZ-5">
          <mxGeometry width="50" height="50" relative="1" as="geometry">
            <mxPoint x="440" y="500" as="sourcePoint" />
            <mxPoint x="490" y="450" as="targetPoint" />
          </mxGeometry>
        </mxCell>
        <mxCell id="LIJdBww6pnUgFBLt4BhZ-7" value="" style="endArrow=classic;startArrow=classic;html=1;rounded=0;fontSize=14;exitX=1;exitY=0.5;exitDx=0;exitDy=0;" edge="1" parent="1" source="LIJdBww6pnUgFBLt4BhZ-3">
          <mxGeometry width="50" height="50" relative="1" as="geometry">
            <mxPoint x="443" y="423" as="sourcePoint" />
            <mxPoint x="360" y="410" as="targetPoint" />
          </mxGeometry>
        </mxCell>
        <mxCell id="LIJdBww6pnUgFBLt4BhZ-8" value="" style="endArrow=classic;startArrow=classic;html=1;rounded=0;fontSize=14;entryX=0;entryY=0.5;entryDx=0;entryDy=0;" edge="1" parent="1" source="LIJdBww6pnUgFBLt4BhZ-1" target="LIJdBww6pnUgFBLt4BhZ-3">
          <mxGeometry width="50" height="50" relative="1" as="geometry">
            <mxPoint x="280" y="420" as="sourcePoint" />
            <mxPoint x="370" y="420" as="targetPoint" />
          </mxGeometry>
        </mxCell>
        <mxCell id="LIJdBww6pnUgFBLt4BhZ-9" value="Dappにアクセス&lt;br&gt;必要に応じて署名" style="text;html=1;strokeColor=none;fillColor=none;align=left;verticalAlign=middle;whiteSpace=wrap;rounded=0;fontSize=14;fontStyle=1" vertex="1" parent="1">
          <mxGeometry x="100" y="320" width="130" height="30" as="geometry" />
        </mxCell>
        <mxCell id="LIJdBww6pnUgFBLt4BhZ-10" value="mint 要求" style="text;html=1;strokeColor=none;fillColor=none;align=center;verticalAlign=middle;whiteSpace=wrap;rounded=0;fontSize=14;fontStyle=1" vertex="1" parent="1">
          <mxGeometry x="440" y="370" width="90" height="30" as="geometry" />
        </mxCell>
        <mxCell id="LIJdBww6pnUgFBLt4BhZ-11" value="Astar Learning Dappの理想系(V2)" style="text;html=1;strokeColor=none;fillColor=none;align=left;verticalAlign=middle;whiteSpace=wrap;rounded=0;fontSize=23;fontStyle=1" vertex="1" parent="1">
          <mxGeometry x="30" y="110" width="430" height="60" as="geometry" />
        </mxCell>
        <mxCell id="LIJdBww6pnUgFBLt4BhZ-12" value="PSP34準拠" style="text;html=1;strokeColor=none;fillColor=none;align=center;verticalAlign=middle;whiteSpace=wrap;rounded=0;fontSize=14;fontStyle=1" vertex="1" parent="1">
          <mxGeometry x="612.75" y="427" width="90" height="30" as="geometry" />
        </mxCell>
        <mxCell id="LIJdBww6pnUgFBLt4BhZ-13" value="コンテンツ&lt;br&gt;コントラクト" style="rounded=1;whiteSpace=wrap;html=1;fontSize=14;fillColor=#d5e8d4;strokeColor=#82b366;fontStyle=1" vertex="1" parent="1">
          <mxGeometry x="604" y="480" width="107.5" height="80" as="geometry" />
        </mxCell>
        <mxCell id="LIJdBww6pnUgFBLt4BhZ-14" value="" style="endArrow=classic;startArrow=classic;html=1;rounded=0;fontSize=14;exitX=1;exitY=0.5;exitDx=0;exitDy=0;entryX=0;entryY=0.5;entryDx=0;entryDy=0;" edge="1" parent="1" source="LIJdBww6pnUgFBLt4BhZ-4" target="LIJdBww6pnUgFBLt4BhZ-13">
          <mxGeometry width="50" height="50" relative="1" as="geometry">
            <mxPoint x="443" y="423" as="sourcePoint" />
            <mxPoint x="614" y="424" as="targetPoint" />
          </mxGeometry>
        </mxCell>
        <mxCell id="LIJdBww6pnUgFBLt4BhZ-15" value="学習コンテンツ表示" style="text;html=1;strokeColor=none;fillColor=none;align=left;verticalAlign=middle;whiteSpace=wrap;rounded=0;fontSize=14;fontStyle=1" vertex="1" parent="1">
          <mxGeometry x="430" y="480" width="110" height="30" as="geometry" />
        </mxCell>
        <mxCell id="LIJdBww6pnUgFBLt4BhZ-16" value="ウォレット" style="rounded=1;whiteSpace=wrap;html=1;fontSize=14;fillColor=#f8cecc;strokeColor=#b85450;fontStyle=1" vertex="1" parent="1">
          <mxGeometry x="190" y="520" width="80" height="80" as="geometry" />
        </mxCell>
        <mxCell id="LIJdBww6pnUgFBLt4BhZ-17" value="&lt;b&gt;コンテンツ作成者&lt;/b&gt;" style="shape=umlActor;verticalLabelPosition=bottom;verticalAlign=top;html=1;outlineConnect=0;" vertex="1" parent="1">
          <mxGeometry x="90" y="530" width="30" height="60" as="geometry" />
        </mxCell>
        <mxCell id="LIJdBww6pnUgFBLt4BhZ-18" value="" style="endArrow=classic;startArrow=classic;html=1;rounded=0;fontSize=14;entryX=0;entryY=0.5;entryDx=0;entryDy=0;" edge="1" parent="1" source="LIJdBww6pnUgFBLt4BhZ-17" target="LIJdBww6pnUgFBLt4BhZ-16">
          <mxGeometry width="50" height="50" relative="1" as="geometry">
            <mxPoint x="120" y="550" as="sourcePoint" />
            <mxPoint x="200" y="420" as="targetPoint" />
          </mxGeometry>
        </mxCell>
        <mxCell id="LIJdBww6pnUgFBLt4BhZ-19" value="" style="endArrow=classic;startArrow=classic;html=1;rounded=0;fontSize=14;entryX=0;entryY=0.5;entryDx=0;entryDy=0;exitX=1;exitY=0.5;exitDx=0;exitDy=0;" edge="1" parent="1" source="LIJdBww6pnUgFBLt4BhZ-16" target="LIJdBww6pnUgFBLt4BhZ-4">
          <mxGeometry width="50" height="50" relative="1" as="geometry">
            <mxPoint x="130" y="570" as="sourcePoint" />
            <mxPoint x="200" y="570" as="targetPoint" />
          </mxGeometry>
        </mxCell>
        <mxCell id="LIJdBww6pnUgFBLt4BhZ-20" value="コンテンツを作成" style="text;html=1;strokeColor=none;fillColor=none;align=left;verticalAlign=middle;whiteSpace=wrap;rounded=0;fontSize=14;fontStyle=1" vertex="1" parent="1">
          <mxGeometry x="290" y="520" width="130" height="30" as="geometry" />
        </mxCell>
        <mxCell id="LIJdBww6pnUgFBLt4BhZ-22" value="" style="endArrow=classic;html=1;rounded=0;fontSize=14;exitX=0.5;exitY=1;exitDx=0;exitDy=0;entryX=0.425;entryY=1.013;entryDx=0;entryDy=0;entryPerimeter=0;edgeStyle=orthogonalEdgeStyle;curved=1;" edge="1" parent="1" source="LIJdBww6pnUgFBLt4BhZ-13" target="LIJdBww6pnUgFBLt4BhZ-16">
          <mxGeometry width="50" height="50" relative="1" as="geometry">
            <mxPoint x="450" y="540" as="sourcePoint" />
            <mxPoint x="500" y="490" as="targetPoint" />
            <Array as="points">
              <mxPoint x="658" y="690" />
              <mxPoint x="224" y="690" />
            </Array>
          </mxGeometry>
        </mxCell>
        <mxCell id="LIJdBww6pnUgFBLt4BhZ-23" value="良質な学習コンテンツの作成者にはリワードを支払う" style="text;html=1;strokeColor=none;fillColor=none;align=left;verticalAlign=middle;whiteSpace=wrap;rounded=0;fontSize=14;fontStyle=1" vertex="1" parent="1">
          <mxGeometry x="340" y="710" width="230" height="30" as="geometry" />
        </mxCell>
      </root>
    </mxGraphModel>
  </diagram>
</mxfile>
